<svg xmlns="http://www.w3.org/2000/svg" width="960" height="640" viewBox="0 0 960 640" font-family="system-ui, 'Malgun Gothic', 'Apple SD Gothic Neo', sans-serif">
<rect width="960" height="640" fill="#14161a"/>
<text x="40" y="60" font-size="28" fill="#e8eaee" font-weight="800">스킬 슬롯 상태 정의</text><rect x="100" y="110" width="140" height="140" fill="#20242b" rx="8" stroke="#3a3f47" stroke-width="2"/><path d="M170 140 l40 40 -40 40 -40 -40z" fill="#4a90d9" fill-opacity="0.9"/><text x="170" y="290" font-size="20" fill="#c9ccd2" text-anchor="middle">사용 가능</text><rect x="400" y="110" width="140" height="140" fill="#20242b" rx="8" stroke="#3a3f47" stroke-width="2"/><path d="M470 140 l40 40 -40 40 -40 -40z" fill="#4a90d9" fill-opacity="0.9"/><path d="M470 180 L470 110 A70 70 0 1 1 400 180Z" fill="#000" fill-opacity="0.6"/><text x="470" y="192" font-size="34" fill="#fff" text-anchor="middle" font-weight="800">5.8</text><text x="470" y="290" font-size="20" fill="#c9ccd2" text-anchor="middle">쿨다운</text><rect x="700" y="110" width="140" height="140" fill="#20242b" rx="8" stroke="#4a90d9" stroke-width="2"/><path d="M770 140 l40 40 -40 40 -40 -40z" fill="#4a90d9" fill-opacity="0.3"/><text x="770" y="238" font-size="16" fill="#7fb3ea" text-anchor="middle" font-weight="700">MP 부족</text><text x="770" y="290" font-size="20" fill="#c9ccd2" text-anchor="middle">자원 부족</text><rect x="100" y="360" width="140" height="140" fill="#20242b" rx="8" stroke="#f2b84b" stroke-width="2"/><path d="M170 390 l40 40 -40 40 -40 -40z" fill="#4a90d9" fill-opacity="0.9"/><rect x="94" y="354" width="152" height="152" fill="none" rx="12" stroke="#f2b84b" stroke-opacity="0.5" stroke-width="4"/><text x="170" y="540" font-size="20" fill="#c9ccd2" text-anchor="middle">강조(콤보)</text><rect x="400" y="360" width="140" height="140" fill="#20242b" rx="8" stroke="#3a3f47" stroke-width="2"/><path d="M470 390 l40 40 -40 40 -40 -40z" fill="#4a90d9" fill-opacity="0.3"/><rect x="452" y="422" width="36" height="30" fill="#c9ccd2" rx="4"/><path d="M458 422 v-10 a12 12 0 0 1 24 0 v10" fill="none" stroke="#c9ccd2" stroke-width="5"/><text x="470" y="540" font-size="20" fill="#c9ccd2" text-anchor="middle">잠김</text><rect x="700" y="360" width="140" height="140" fill="#2c313a" rx="8" stroke="#e8eaee" stroke-width="2"/><path d="M770 390 l40 40 -40 40 -40 -40z" fill="#4a90d9" fill-opacity="0.9"/><text x="770" y="540" font-size="20" fill="#c9ccd2" text-anchor="middle">누르는 중</text>
<g opacity="0.9"><rect x="770" y="582" width="170" height="38" rx="4" fill="#000" fill-opacity="0.55" stroke="#f2b84b" stroke-dasharray="6 4"/>
<text x="855" y="607" text-anchor="middle" font-size="18" font-weight="700" fill="#f2b84b" letter-spacing="3">SAMPLE</text></g>
</svg>