<svg xmlns="http://www.w3.org/2000/svg" width="1200" height="760" viewBox="0 0 1200 760" font-family="system-ui, 'Malgun Gothic', 'Apple SD Gothic Neo', sans-serif">
<rect width="1200" height="760" fill="#14161a"/>
<rect x="0" y="0" width="1200" height="760" fill="#12141a" /><rect x="60" y="60" width="340" height="420" fill="#1a1d23" rx="14" stroke="#2e3136"/><rect x="170" y="100" width="120" height="120" fill="#12141a" rx="8" stroke="#4a90d9" stroke-width="2"/><path d="M200 190 L256.4 133.6 M244.4 126.4 L263.6 145.6" stroke="#4a90d9" stroke-width="10.799999999999999" stroke-linecap="round"/><text x="230" y="280" font-size="24" fill="#e8eaee" text-anchor="middle" font-weight="700">장비 상자</text><text x="230" y="316" font-size="18" fill="#a9adb5" text-anchor="middle">구매 제한 1 / 3</text><rect x="100" y="380" width="260" height="60" fill="#f2b84b" rx="10"/><circle cx="180" cy="410" r="12" fill="#15130f"/><text x="200" y="418" font-size="22" fill="#15130f" font-weight="800">1,200</text><rect x="430" y="60" width="340" height="420" fill="#1a1d23" rx="14" stroke="#2e3136"/><rect x="540" y="100" width="120" height="120" fill="#12141a" rx="8" stroke="#9b7fd1" stroke-width="2"/><path d="M600 124 L631.2 138.4 V166 Q600 200.8 600 200.8 Q568.8 184 568.8 166 V138.4Z" fill="#9b7fd1"/><text x="600" y="280" font-size="24" fill="#e8eaee" text-anchor="middle" font-weight="700">회복 물약 묶음</text><text x="600" y="316" font-size="18" fill="#a9adb5" text-anchor="middle">구매 제한 1 / 3</text><rect x="470" y="380" width="260" height="60" fill="#2a2d33" rx="10"/><circle cx="550" cy="410" r="12" fill="#f2b84b"/><text x="570" y="418" font-size="22" fill="#e8eaee" font-weight="800">1,200</text><rect x="800" y="60" width="340" height="420" fill="#1a1d23" rx="14" stroke="#2e3136"/><rect x="910" y="100" width="120" height="120" fill="#12141a" rx="8" stroke="#f2b84b" stroke-width="2"/><rect x="955.6" y="124" width="28.799999999999997" height="14.399999999999999" fill="#f2b84b"/><circle cx="970" cy="167.2" r="26.4" fill="#f2b84b"/><text x="970" y="280" font-size="24" fill="#e8eaee" text-anchor="middle" font-weight="700">강화 재료</text><text x="970" y="316" font-size="18" fill="#a9adb5" text-anchor="middle">구매 제한 1 / 3</text><rect x="840" y="380" width="260" height="60" fill="#2a2d33" rx="10"/><circle cx="920" cy="410" r="12" fill="#f2b84b"/><text x="940" y="418" font-size="22" fill="#e8eaee" font-weight="800">1,200</text><rect x="0" y="0" width="1200" height="760" fill="#000" fill-opacity="0.55"/><rect x="300" y="200" width="600" height="400" fill="#16191f" rx="18" stroke="#3a3f47"/><text x="600" y="262" font-size="28" fill="#e8eaee" text-anchor="middle" font-weight="800">구매 확인</text><text x="340" y="330" font-size="22" fill="#e8eaee" >장비 상자 × 1</text><text x="860" y="330" font-size="22" fill="#e8eaee" text-anchor="end" font-weight="700">1,200</text><text x="340" y="376" font-size="20" fill="#a9adb5" >보유 → 구매 후</text><text x="860" y="376" font-size="20" fill="#e8eaee" text-anchor="end">48,200 → 47,000</text><rect x="340" y="400" width="520" height="1" fill="#3a3f47" /><text x="340" y="446" font-size="18" fill="#7fb3ea" >획득 가능 품목 확률 보기 ›</text><rect x="340" y="500" width="250" height="68" fill="#1d2026" rx="10" stroke="#3a3f47"/><text x="465" y="543" font-size="22" fill="#c9ccd2" text-anchor="middle" font-weight="700">취소</text><rect x="610" y="500" width="250" height="68" fill="#f2b84b" rx="10"/><text x="735" y="543" font-size="22" fill="#15130f" text-anchor="middle" font-weight="800">구매</text>
<g opacity="0.9"><rect x="1010" y="702" width="170" height="38" rx="4" fill="#000" fill-opacity="0.55" stroke="#f2b84b" stroke-dasharray="6 4"/>
<text x="1095" y="727" text-anchor="middle" font-size="18" font-weight="700" fill="#f2b84b" letter-spacing="3">SAMPLE</text></g>
</svg>